# xmcd
#
# Track frame offsets:
#	150
#	14123
#	28868
#	49638
#	65165
#	84056
#	101493
#	115477
#	130224
#	151014
#	166532
#	185442
#
# Disc length: 2707 seconds
#
# Revision: 1
# Processed by: cddbd v1.5.2PL0 Copyright (c) Steve Scherf et al.
# Submitted via: audiograbber 1.83.01
#
DISCID=930a910c
DTITLE=Chartbuster  - Karaoke Country Hot Hits  vol 275
DYEAR=1900
DGENRE=karaoke
TTITLE0=Jolie and the Wanted - Boom
TTITLE1=Meredith Edwards - A Rose Is A Rose
TTITLE2=Sara Evans - I Could Not Ask For More
TTITLE3=Cherie Austin - Jolene
TTITLE4=Leslie Satcher, Emmy Lou Harris and Allison Krause - Love Letters From 
TTITLE4=Old Mexico
TTITLE5=Lisa Angelle - I Will Love You
TTITLE6=Jolie and the Wanted - Boom (vocal)
TTITLE7=Meredith Edwards - A Rose Is A Rose (vocal)
TTITLE8=Sara Evans - I could Not Ask For More (vocal)
TTITLE9=Cherie Austin - Jolene (vocal)
TTITLE10=Leslie Satcher, Emmy Lou Harris and Allison Krause - Love Letters From
TTITLE10=Old Mexico (vocal)
TTITLE11=Lisa Angelle - I Will Love You (vocal)
EXTD=karaoke
EXTT0=
EXTT1=
EXTT2=
EXTT3=
EXTT4=
EXTT5=
EXTT6=
EXTT7=
EXTT8=
EXTT9=
EXTT10=
EXTT11=
PLAYORDER=
